PathFileType	4	(X/Y/Z)	35_2_41_p0_0-357_filt_butterworth.trc
DataRate	CameraRate	NumFrames	NumMarkers	Units	OrigDataRate	OrigDataStartFrame	OrigNumFrames
60.0	60.0	7	27	m	60.0	0	357
Frame#	Time	RHip			RKnee			RAnkle			RBigToe			RSmallToe			RHeel			LHip			LKnee			LAnkle			LBigToe			LSmallToe			LHeel			Neck			Head			Nose			RShoulder			RElbow			RWrist			RThumb			RIndex			RPinky			LShoulder			LElbow			LWrist			LThumb			LIndex			LPinky			
		X1	Y1	Z1	X2	Y2	Z2	X3	Y3	Z3	X4	Y4	Z4	X5	Y5	Z5	X6	Y6	Z6	X7	Y7	Z7	X8	Y8	Z8	X9	Y9	Z9	X10	Y10	Z10	X11	Y11	Z11	X12	Y12	Z12	X13	Y13	Z13	X14	Y14	Z14	X15	Y15	Z15	X16	Y16	Z16	X17	Y17	Z17	X18	Y18	Z18	X19	Y19	Z19	X20	Y20	Z20	X21	Y21	Z21	X22	Y22	Z22	X23	Y23	Z23	X24	Y24	Z24	X25	Y25	Z25	X26	Y26	Z26	X27	Y27	Z27	
0	0.0	0.3961220112124296	0.681737681716157	0.479841740608147	0.3929247520994447	0.9409487980729333	0.8393333352160288	0.3921326290622628	1.1550251861564693	1.1880531752949444	0.35901492881408664	0.9951497580817392	1.2912732521662496	0.42432793830190835	0.9928011972788128	1.2828985678550726	0.3572060027850953	1.2639606240742083	1.2092127619500967	0.16352977202781777	0.7198263183125116	0.46497525068384016	0.1694388234300262	0.9180920482629793	0.8118816496146303	0.19189269645860982	1.1546225294368253	1.1803023162690645	0.21502874316913653	0.9913840721694034	1.2884655712191302	0.14969492098753695	0.9943470330805633	1.272402662425367	0.20153445644159235	1.2127974301780304	1.2232748256463724	0.29151069190817563	0.4093082691129034	-0.05854468569074684	0.2811355381032975	0.22835276538240395	-0.267020540005673	0.2684637436137141	0.23985514674548844	-0.11498920209465668	0.4643260967931324	0.4621050067265136	0.018399604339013408	0.499888066619878	0.5236018884054324	0.30920728836903977	0.3454809502360945	0.5267833676616092	0.5193612772627199	0.2545004486996484	0.561746267202796	0.5876760035414876	0.24704702220322444	0.5709307152636967	0.602783575004582	0.25713112261378746	0.5583112410524946	0.6039984721237387	0.1260070540491377	0.47426036224761303	0.007387617472130178	0.08457275359035316	0.5179945736153442	0.29368060637766163	0.21908811135002068	0.511682845536965	0.5133890928321577	0.29350989977659486	0.5501998097459136	0.5728132744599643	0.2949352960313302	0.5769220330921567	0.6122743794076643	0.2628488519893736	0.5631047302838561	0.6142054296389138
1	0.0166666666666666	0.39789009877052856	0.6864631718005151	0.4805339948098117	0.3948860983908104	0.9349332642436371	0.839575499648901	0.38985686471942993	1.1564448630091786	1.1909052231918902	0.3542882404045847	0.9880467846798796	1.293151337458733	0.4232166751320181	0.9718448031731624	1.281544258576061	0.3568763435251352	1.266085318963426	1.2120315152995005	0.1636998379700627	0.7205038110117987	0.4671254366764321	0.16943703822154202	0.9183235241722009	0.8119149721398603	0.19250661076730707	1.1499449410827167	1.179740164076229	0.21425013405896798	0.9910528243026533	1.286061186101241	0.1491905029899577	0.9897206982660668	1.2711361641773091	0.2014468501213986	1.2130626681195804	1.2233843655071304	0.29148456010451024	0.4097508356857175	-0.05740073638880463	0.2811099978830245	0.22834924164887982	-0.2669728994001055	0.2683283705813331	0.24013065952203794	-0.11398763265720671	0.4643173959101521	0.46211151819467394	0.01838739774581302	0.4998042938013579	0.5234621649459299	0.3092397182933358	0.34528956568188285	0.5268387540772879	0.5201564466567963	0.25221964338197	0.5554182387845428	0.5890586091873901	0.24703581290492188	0.5708740000885888	0.6030851822223308	0.25479457679441175	0.5665324252623376	0.602958363420138	0.1259856989823127	0.474571859262225	0.007285596728863047	0.08658987715538673	0.520561280563515	0.29334401239605834	0.22136877587919918	0.5124827464059682	0.5118966673275904	0.2913755260845894	0.5422617440563892	0.5758360290018614	0.29275875870317836	0.5673597003953971	0.611531590697122	0.26243289526768476	0.5611628306830801	0.6121997257692674
2	0.0333333333333333	0.39956796845157455	0.6908827787591751	0.48118911395556796	0.39666548095572696	0.9295321905890918	0.8402529400626033	0.3884361254855449	1.1572963636275138	1.192633732259438	0.35189610417585626	0.9850856774237025	1.2944818897127106	0.42298546595434783	0.9607861325708384	1.2808819986982813	0.35687857583208027	1.2674738473443612	1.2137618923278015	0.1638076265213638	0.7209167269779467	0.46840257837783716	0.16942446096719366	0.9185231198673927	0.8119481041163035	0.19282988639414256	1.1500721326268546	1.1799353309013842	0.21429288327827029	0.9940179237229498	1.2852995122537674	0.1491360139705749	0.9893966326763843	1.2709947017428043	0.20136923471474014	1.2132136239041893	1.2235597227900377	0.2914428416661772	0.4101742208828153	-0.056334502558282006	0.28109271488592513	0.22833968414439912	-0.266947213545964	0.2682087144851381	0.24035066870498398	-0.11328276037561019	0.46431237134954123	0.46208821885460466	0.018401084302639578	0.4997062817226523	0.5232672472948019	0.3092897605047533	0.34525343664537056	0.5270131725972526	0.520841871549184	0.2517168621515102	0.5535209354263438	0.589196531802544	0.24703538906405667	0.5708921655575411	0.603278334109961	0.25338494909356896	0.571490733570694	0.6024015275909684	0.12598655701107475	0.47472703949899064	0.007233282849736357	0.087118781636846	0.524706894214772	0.2931754395677593	0.22273299759064857	0.5160106490136406	0.51003245210148	0.2899550191754284	0.5375067217882533	0.5770254493843718	0.2914249810006314	0.5617221469166254	0.6110296805849847	0.2621920924342113	0.5596152033942084	0.6106442741917668
3	0.05	0.4006415395717992	0.6942253009485361	0.481594317640734	0.3977397464144703	0.9263185512147573	0.8415589029808138	0.38807732046145643	1.1575752017612713	1.1931601038129929	0.3522439207498844	0.9862736242593275	1.295252251878685	0.4239336192585407	0.961218903631502	1.281001104940239	0.3573963264115201	1.268161363230594	1.2143185715456195	0.16384231740515506	0.7210402588730359	0.4687391796756859	0.16939310755054623	0.9186880142592023	0.8119853780174456	0.1921444692378395	1.1535279397888467	1.18116917348268	0.21493814767350333	0.9996147168564429	1.2864632158820204	0.1493488809819579	0.9922215894026878	1.2716750243174564	0.20133242443023566	1.2132736585567168	1.223812566126052	0.29137033981264177	0.41057276571019546	-0.05563952904625537	0.28108467366767803	0.2283181931547249	-0.26694044623439805	0.2682090010154399	0.24005518260555742	-0.11306562713814475	0.4643109328661536	0.46203398179765115	0.018438178878242242	0.4997292488862586	0.5233757744496892	0.3092676256349968	0.3455484010481685	0.5277607776736597	0.521410290382727	0.25294484664441685	0.5558639515955277	0.5877792584595053	0.24704977217754714	0.5710172564964098	0.6033607319563477	0.2529762106351837	0.5728438124786994	0.6023712105673948	0.12601423254730296	0.47469868338088933	0.007239007051223344	0.0862700606115972	0.529958396940164	0.2932038133095467	0.22311528065297856	0.5202788758500408	0.5084098011261875	0.28931976370247087	0.5380466850309189	0.5761482946371673	0.29098208618050736	0.5607974684683402	0.6107155098819831	0.26214129126476493	0.5588912628931897	0.6093104826692048
4	0.0666666666666666	0.4006673343024025	0.6970657916570552	0.4815128273538695	0.397942758641853	0.9257669293980962	0.8431304246763809	0.3886503737098742	1.1576806455533601	1.1931058288922387	0.3539479789379575	0.9894956941745217	1.2956817386787343	0.4254929341391715	0.967389723918628	1.2814708041606369	0.3580923431900002	1.268459423754848	1.2142964378633183	0.16385012094381193	0.7211021609373598	0.4687160986026875	0.1693551511063794	0.918819481523472	0.8120176675675461	0.1903740803413616	1.156504269963778	1.18294436851154	0.21585213869466238	1.0045741672665989	1.2884337853621886	0.1494634161686754	0.9948413259948097	1.2722972379858195	0.20133389757250633	1.2133971022485186	1.2240751396405982	0.29127813576277783	0.41092643484950037	-0.05541284733671431	0.2810809329018198	0.22828760333361037	-0.2669440336496699	0.26856145271225423	0.23846789744367267	-0.11333677044498888	0.4643176396830192	0.4619739553665289	0.018477377106503115	0.5002221080870404	0.5246905981622175	0.30895146985348987	0.34633994465504403	0.5299253693568503	0.5218182163989445	0.25450775802070275	0.5590804749790834	0.5857855494278719	0.24707315644171104	0.5712096677109793	0.6033923750322772	0.2530888326032644	0.5723662159476834	0.6025212309572229	0.12605547632463646	0.4745735501460879	0.007280418405531004	0.08511479233302441	0.5340748947448755	0.2933559026047741	0.22302427225915814	0.5224923688207227	0.5076238946322602	0.2891199146542101	0.5442719116809351	0.5742317160594067	0.2910533839082196	0.5633968212075477	0.6103609300763296	0.26226172947729376	0.5597678769042509	0.6078680144378142
5	0.0833333333333333	0.399736405040649	0.701104051263242	0.4809050610093609	0.39771926422613507	0.9265018506737714	0.8442651347556372	0.390016603255603	1.1579315567419988	1.1929642148561748	0.35540862331554657	0.9932370874868204	1.2958497979785102	0.42673610860235667	0.9728684892176543	1.2818382706671883	0.3585118930071599	1.2685173070700544	1.2141774708050872	0.16390745585008473	0.7214652957681588	0.4690254364547034	0.1693323179136531	0.9188937920963397	0.8120273399235491	0.18861579426815525	1.1577297600333185	1.1843431509841413	0.21713202152574265	1.0072787876393567	1.2899257923544627	0.14953638770251737	0.9955751472281082	1.2725028663561537	0.20129172231925807	1.2136229257601605	1.22425067206205	0.29128831644901165	0.41090142228946375	-0.05532377416082179	0.28107666325674197	0.22825948725718054	-0.26695852593574576	0.2694296877755181	0.23571001160177044	-0.11394168584039288	0.4643385399989688	0.4619302044248493	0.018501454480557684	0.5014498874497479	0.5278693606531667	0.3081781895535071	0.34765917582836614	0.5339151099324815	0.5218121182114769	0.25539808741997017	0.5609281635098505	0.5845900571124548	0.2470992345131045	0.5713793919435859	0.6033591080773597	0.2534437444167007	0.5719159606685952	0.6023445632435668	0.12609137394358674	0.4744522196743889	0.007330825827905521	0.08407755802588578	0.5356650891850127	0.2935558558221949	0.2228720059808744	0.5230052489346564	0.5075263111491892	0.2890832769111755	0.5533921962422699	0.5723954202989968	0.2915220525982018	0.56825737875951	0.6098680383623387	0.2627369438616038	0.5628439908166801	0.6064574460434214
6	0.1	0.3984464770935946	0.7062995034383267	0.480041026896742	0.3975187397611372	0.9271437098962403	0.8446531767912686	0.3916978477756195	1.158323694627537	1.1928940381482902	0.3560277664660599	0.9962097386848031	1.2958120391189571	0.4272801744395438	0.9752215791641317	1.2819528820629975	0.35861416746292285	1.268452141334185	1.2141185628009776	0.1640638265490078	0.7223535770533577	0.47003659288180344	0.16932003419053968	0.9188977649043549	0.8120134750646704	0.18777735571399942	1.157860896227791	1.184946008868185	0.21832135632674116	1.0083584271019101	1.29053492794179	0.15003060869401807	0.9936857947680653	1.2723174920320608	0.20113051564041765	1.213816150618285	1.224313389607138	0.29168709065213194	0.40957821276598855	-0.05491100476245322	0.2810701154340419	0.2282427591216734	-0.26697710632293964	0.270562611387797	0.23428022529799625	-0.1146248583554248	0.46436901216709536	0.4618959234266471	0.01850749828296664	0.5030693014721543	0.5320110241736757	0.3071600439925677	0.3491529349078959	0.5386155187246884	0.5213506716881577	0.2556055278830546	0.5614403541885843	0.5846119103469769	0.24712797408194526	0.5714784960219363	0.6031667770692195	0.2541781785539163	0.5729863665587281	0.6014290303568269	0.12610896746299952	0.474379964348796	0.007370615238023511	0.08285977512248954	0.5355157158685716	0.2937192587722741	0.22278088092369022	0.5241284506012074	0.5077733702819605	0.2891245482124855	0.5607503030448722	0.5712894342770725	0.2924318871417287	0.573617393653702	0.6093527943248358	0.26377813391569205	0.5672307734062034	0.6053856974330585
